<svg xmlns="http://www.w3.org/2000/svg" width="309" height="24" fill="#005596" xmlns:v="https://vecta.io/nano"><path d="M291.419 23.24v-.945c.656-.309 1.191-.629 1.604-.961.066-.463.12-1.213.164-2.249l.132-4.141V7.496l-.049-3.229c-.032-1.247-.111-2.168-.228-2.445a.56.56 0 0 0-.247-.248c-.296-.132-1.081-.232-2.356-.297V0h17.435s-.172.584-.381 2.215c-.087.676-.139 1.611-.208 2.931h-1.278l-.148-2.401c-.042-.153-.108-.265-.196-.329-.142-.1-.577-.188-1.306-.265-1.079-.121-2.135-.183-3.17-.183l-2.973.116c-.155 1.257-.228 2.853-.228 4.789v3.421l2.316.083 2.712-.067c.588-.012.935-.049 1.037-.116s.183-.181.238-.348c.13-.417.205-1.12.228-2.103h1.326l-.081 3.644.081 3.624h-1.326c.01-1.28-.072-2.071-.248-2.368-.132-.22-.368-.357-.711-.415-.763-.12-1.736-.181-2.927-.181l-2.645.116v6.944l.048 1.995c.883.08 1.927.116 3.137.116l3.26-.116c.998-.076 1.611-.187 1.84-.331.075-.044.147-.144.212-.296.196-.532.403-1.535.62-3.015h1.344l-.305 5.78h-16.723zm-60.773-.015v-.852c.282-.123.682-.336 1.194-.645.231-.132.378-.243.443-.332.044-.055.184-1.445.231-3.14l.062-6.109-.026-6.465-.203-3.563a.52.52 0 0 0-.247-.299c-.252-.165-1.092-.276-2.518-.331V.029l4.748.116 5.649-.116v1.46c-1.235.055-1.988.155-2.261.297-.12.067-.207.175-.26.323s-.11.832-.158 2.048l-.073 4.604.016 4.788.025 4.699.026 2.823 3.077.117c1.659 0 3.105-.101 4.337-.301.448-.064.715-.137.803-.213s.181-.283.279-.615l.557-2.376h1.359l-.532 5.557-16.528-.015zm-44.103-1.834c-1.364.7-2.589 1.179-3.676 1.439s-2.441.387-4.068.387c-2.315 0-4.361-.353-6.14-1.061-1.397-.572-2.581-1.331-3.552-2.272s-1.719-1.967-2.243-3.069c-.797-1.663-1.194-3.468-1.194-5.416 0-3.337 1.174-6.063 3.526-8.176s5.674-3.17 9.964-3.17c1.472 0 2.796.107 3.97.317s2.668.636 4.22 1.176c0 0-.296.887-.463 2.033l-.311 3.321h-1.277l-.164-2.797c-.731-.74-1.553-1.295-2.464-1.661s-2.077-.548-3.496-.548c-2.565 0-4.616.788-6.155 2.361s-2.309 3.768-2.309 6.585c0 1.707.259 3.192.776 4.465s1.212 2.323 2.075 3.155 1.728 1.437 2.602 1.82c1.188.508 2.63.763 4.322.763 1.112 0 2.165-.123 3.158-.367s2.442-.899 3.611-1.491l-.712 2.205zm5.806-10.503c0 2.475.35 4.524 1.048 6.145s1.594 2.765 2.686 3.433 2.378 1.004 3.864 1.004c1.373 0 2.605-.32 3.69-.956s1.938-1.716 2.554-3.236.926-3.361.926-5.531c0-1.487-.168-2.847-.5-4.08s-.81-2.28-1.432-3.147-1.357-1.528-2.202-1.985-1.968-.684-3.366-.684c-1.592 0-2.949.364-4.066 1.092s-1.934 1.801-2.439 3.225-.763 2.997-.763 4.719zm-5.042.948c0-1.943.302-3.637.908-5.08a10.12 10.12 0 0 1 2.596-3.677c1.126-1.008 2.346-1.737 3.668-2.183 1.689-.563 3.534-.844 5.532-.844 1.986 0 3.786.272 5.404.812a9.86 9.86 0 0 1 3.184 1.792c.924.78 1.622 1.579 2.105 2.397.477.816.841 1.713 1.088 2.689s.367 2.055.367 3.233c0 1.995-.355 3.847-1.064 5.556-.524 1.275-1.29 2.407-2.302 3.395a10.76 10.76 0 0 1-3.445 2.276c-1.768.711-3.787 1.067-6.057 1.067-2.456 0-4.564-.432-6.328-1.297s-3.147-2.141-4.15-3.828-1.506-3.793-1.506-6.308zM212.7 23.225v-.852c.284-.123.683-.336 1.196-.645.228-.132.376-.243.443-.332.041-.055.184-1.445.228-3.14l.065-6.109-.028-6.465-.201-3.563a.52.52 0 0 0-.248-.299c-.252-.165-1.091-.276-2.517-.331V.029l4.745.116 5.649-.116v1.46c-1.234.055-1.986.155-2.258.297-.12.067-.208.175-.263.323s-.105.832-.153 2.048l-.075 4.604.016 4.788.024 4.699.024 2.823 3.08.117c1.659 0 3.104-.101 4.337-.301.448-.064.715-.137.802-.213s.181-.283.278-.615l.559-2.376h1.359l-.534 5.557-16.528-.015zm35.788.015v-.945c.654-.309 1.19-.629 1.605-.961.065-.463.12-1.213.164-2.249l.132-4.141V7.496l-.051-3.229c-.03-1.247-.109-2.168-.228-2.445a.54.54 0 0 0-.245-.248c-.296-.132-1.083-.232-2.357-.297V0h17.436s-.172.584-.383 2.215c-.085.676-.137 1.611-.208 2.931h-1.276l-.148-2.401c-.043-.153-.111-.265-.196-.329-.143-.1-.577-.188-1.308-.265a28.32 28.32 0 0 0-3.168-.183l-2.975.116c-.153 1.257-.226 2.853-.226 4.789v3.421l2.316.083 2.712-.067c.588-.012.934-.049 1.036-.116s.184-.181.238-.348c.13-.417.206-1.12.228-2.103h1.326l-.082 3.644.082 3.624h-1.326c.01-1.28-.073-2.071-.249-2.368-.132-.22-.368-.357-.709-.415-.763-.12-1.738-.181-2.927-.181l-2.645.116v6.944l.046 1.995c.883.08 1.927.116 3.139.116l3.259-.116c.996-.076 1.61-.187 1.84-.331.076-.044.146-.144.212-.296.197-.532.402-1.535.621-3.015h1.343l-.304 5.78h-16.724zm39.753-16.384h-1.31l-.064-1.515c-.034-.467-.088-.867-.164-1.196a3.97 3.97 0 0 0-.884-.781c-.707-.469-1.524-.836-2.454-1.1-.924-.268-1.972-.4-3.138-.4-2.726 0-4.911.824-6.552 2.473s-2.459 3.911-2.459 6.795c0 3.148.863 5.649 2.591 7.505s3.844 2.781 6.353 2.781a10.17 10.17 0 0 0 2.132-.221 11.07 11.07 0 0 0 2.036-.655c.033-.287.06-.839.081-1.659l.035-1.484-.132-4.84c-.067-.129-.212-.217-.441-.272-.382-.105-1.952-.208-3.64-.304v-1.291l5.426.064 5.46-.064v1.053c-.632.128-1.582.301-1.78.525-.097.107-.157.399-.178.879l-.083 5.653c0 .808.049 1.636.148 2.489-2.028.721-3.801 1.231-5.313 1.529a23.37 23.37 0 0 1-4.527.447c-2.456 0-4.627-.405-6.516-1.212-1.32-.575-2.451-1.312-3.388-2.217s-1.656-1.876-2.145-2.92c-.775-1.615-1.163-3.412-1.163-5.389 0-1.671.253-3.128.76-4.371s1.217-2.331 2.121-3.263 1.935-1.684 3.087-2.264a14.06 14.06 0 0 1 3.619-1.244c1.26-.251 2.645-.375 4.149-.375 1.855 0 3.583.164 5.183.495s2.844.691 3.738 1.084l.132.303c-.261.936-.501 2.589-.72 4.96zM109.308 2.074V.757l2.45.075 2.909.039 2.756-.072 3.139-.089c1.602 0 2.802.121 3.598.361s1.474.744 2.036 1.507.843 1.688.843 2.783a5.92 5.92 0 0 1-1.149 3.541c-.766 1.063-1.946 1.905-3.538 2.528.256.477 4.971 7.917 5.023 7.992l1.409 1.883c.174.192.342.324.504.397s.486.116.966.128v1.415l-3.414-.064-2.436.064c-.052-.236-.173-.541-.368-.917l-3.276-5.673-2.388-3.841c-.328-.471-.641-.825-.949-1.061l.168-.529c1.225.041 2.149-.088 2.772-.395s1.148-.855 1.577-1.643.642-1.673.642-2.649c0-.987-.223-1.809-.672-2.463s-1.006-1.112-1.67-1.369c-.429-.161-1.194-.241-2.297-.241-.488 0-.975.044-1.455.128l-.09 2.605-.091 6.08.044 5.116.093 3.767c.03.6.086.991.168 1.172.039.087.107.167.199.236s.239.127.443.168.797.075 1.777.096v1.415l-5.299-.112-4.424.112v-1.415c1.163-.041 1.854-.101 2.068-.177.122-.032.212-.084.268-.16s.099-.224.13-.451c.07-.417.122-1.051.152-1.899l.124-4.697V8.477l-.078-3.393c-.02-1.34-.082-2.145-.182-2.413-.051-.117-.127-.209-.228-.273-.243-.128-.995-.236-2.254-.323zM7.155 21.469c.344.076 1.204.088 2.135.088 1.265 0 2.288-.439 3.069-1.312s1.171-2.124 1.171-3.753c0-1.157-.204-2.095-.612-2.813s-.949-1.224-1.623-1.517-1.603-.443-2.787-.443a13.11 13.11 0 0 0-1.353.092v9.659zm0-11.436l.868.012c.693 0 1.531-.057 2.124-.176s1.071-.324 1.439-.617.676-.735.927-1.319.375-1.257.375-2.017c0-.772-.144-1.429-.429-1.969s-.659-.927-1.116-1.156-1.149-.347-2.068-.347c-.664 0-1.577.056-2.119.131v7.459zM1.038 23.244v-.903c.647-.249 1.241-.673 1.519-.843V5.988l-.141-3.205c-.051-.161-.128-.275-.229-.339-.215-.149-.869-.268-2.185-.353V.756l.595.02 2.112.075L5.498.87 7.899.833l3.073-.109c1.685 0 2.984.184 3.897.547s1.581.892 2.005 1.584.636 1.464.636 2.323a4.86 4.86 0 0 1-.727 2.572c-.483.793-1.105 1.408-1.861 1.848-.448.268-1.449.627-3 1.077 1.857.236 3.151.545 3.88.932s1.315.988 1.753 1.808.659 1.733.659 2.739c0 1.064-.225 2.024-.673 2.887s-1.028 1.599-1.739 2.211-1.523 1.097-2.441 1.455-2.067.539-3.445.539l-5.339-.113-3.54.113zm17.527-21.17V.757l2.451.075 2.909.039L26.68.798l3.14-.089c1.601 0 2.801.121 3.597.361s1.475.744 2.037 1.507.841 1.688.841 2.783a5.92 5.92 0 0 1-1.149 3.541c-.765 1.063-1.944 1.905-3.536 2.528.255.477 4.969 7.917 5.023 7.992l1.408 1.883c.173.192.343.324.504.397s.485.116.965.128v1.415l-3.415-.064-2.433.064c-.051-.236-.175-.541-.367-.917l-3.279-5.673-2.388-3.841c-.327-.471-.643-.825-.949-1.061l.168-.529c1.227.041 2.149-.088 2.772-.395s1.148-.855 1.577-1.643.644-1.673.644-2.649c0-.987-.227-1.809-.676-2.463s-1.003-1.112-1.668-1.369c-.428-.161-1.195-.241-2.296-.241a8.44 8.44 0 0 0-1.456.128l-.091 2.605-.092 6.08.045 5.116.092 3.767c.031.6.087.991.168 1.172a.66.66 0 0 0 .2.236c.092.071.24.127.444.168s.796.075 1.776.096v1.415l-5.297-.112-4.425.112v-1.415c1.164-.041 1.852-.101 2.067-.177.124-.032.212-.084.268-.16s.1-.224.131-.451c.071-.417.123-1.051.153-1.899l.121-4.697v-5.97l-.076-3.393c-.019-1.34-.081-2.145-.181-2.413a.6.6 0 0 0-.229-.273c-.243-.128-.995-.236-2.253-.323zm24.444 9.142c0 2.391.327 4.371.98 5.935s1.489 2.672 2.512 3.317 2.224.971 3.612.971c1.287 0 2.436-.308 3.453-.924s1.811-1.657 2.388-3.127.865-3.247.865-5.341c0-1.437-.156-2.749-.467-3.943s-.759-2.203-1.34-3.039-1.269-1.476-2.06-1.917-1.84-.661-3.147-.661c-1.489 0-2.757.352-3.804 1.053s-1.807 1.744-2.281 3.117-.712 2.896-.712 4.559zm-4.716.915c0-1.875.284-3.512.851-4.907s1.375-2.579 2.427-3.553S43.764 1.993 45 1.564c1.581-.544 3.308-.816 5.175-.816 1.857 0 3.541.261 5.052.785 1.124.4 2.115.977 2.98 1.731s1.516 1.525 1.965 2.313a10.02 10.02 0 0 1 1.019 2.601c.23.944.345 1.985.345 3.124 0 1.925-.332 3.716-.996 5.368a9.76 9.76 0 0 1-2.151 3.276c-.943.955-2.019 1.688-3.223 2.197-1.655.689-3.543 1.033-5.665 1.033-2.296 0-4.269-.419-5.919-1.255a9.18 9.18 0 0 1-3.88-3.7c-.939-1.632-1.409-3.661-1.409-6.092zM76.167.753h1.408c.379 1.093 5.832 15.252 5.832 15.252l2.956-12.451c.032-.171.045-.332.045-.483 0-.225-.047-.401-.144-.531a.79.79 0 0 0-.436-.272c-.092-.023-.733-.081-1.929-.177V.757L87.22.87l3.615-.113v1.335c-.153.011-.267.021-.337.031-.643.044-1.036.108-1.18.195s-.28.24-.412.465-.483 1.329-1.048 3.311-4.197 16.355-4.311 17.124h-2.343L75.373 7.527c-.437 1.008-6.341 15.689-6.341 15.689h-2.22l-3.56-16.963c-.391-1.887-.664-3.016-.829-3.392-.113-.268-.265-.449-.46-.545-.247-.129-.777-.204-1.596-.225V.757l4.276.113 5.008-.113v1.335l-1.484.064c-.287.043-.489.125-.612.249s-.184.308-.184.553a4.03 4.03 0 0 0 .023.411c.016.155.12.775.312 1.857.381 2.123 2.199 10.931 2.199 10.931L76.167.753zm16.661 13.852h6.425l-3.275-8.249-3.151 8.249zm-6.752 8.639v-1.327l1.477-.168a1.05 1.05 0 0 0 .405-.221c.112-.103.227-.261.345-.479S96.227.796 96.227.796h2.175l8.405 20.325c.101.189.199.329.291.415a.92.92 0 0 0 .313.192c.119.041.404.112.885.144.152.021.39.016.462.045v1.327l-4.032-.113-5.374.113v-1.327c1.236-.052 1.934-.124 2.091-.213s.239-.241.239-.455c0-.264-.119-.699-.354-1.305l-1.314-3.501H92.12s-1.433 4.288-1.433 4.648c0 .255.08.435.243.543.244.148.973.243 2.188.284v1.327l-3.531-.113-3.511.113zm51.351-1.977a16.41 16.41 0 0 0 2.724.243c1.359 0 2.562-.151 3.612-.453.778-.224 1.458-.549 2.038-.977s1.14-1.063 1.676-1.9.952-1.831 1.249-2.989.444-2.405.444-3.744c0-1.223-.149-2.403-.444-3.545s-.781-2.141-1.456-2.997a5.76 5.76 0 0 0-2.557-1.864c-1.031-.385-2.591-.579-4.683-.579-.788 0-1.655.069-2.603.209v18.597zm-6.109 1.977v-.772a7.58 7.58 0 0 1 .424-.257 11.4 11.4 0 0 0 1.091-.737l-.007-16.74c0-.817-.057-1.675-.129-1.971-.032-.097-.071-.173-.123-.227-.08-.085-.208-.149-.38-.192s-.812-.139-1.919-.291V.756l5.555.113 3.688-.091 3.137-.055c1.806 0 3.251.115 4.335.345s2.035.6 2.84 1.109 1.487 1.112 2.043 1.808a7.73 7.73 0 0 1 1.262 2.251c.479 1.351.72 2.829.72 4.436 0 2.047-.36 3.873-1.072 5.48s-1.697 2.955-2.945 4.035-2.604 1.863-4.061 2.34-3.219.716-5.28.716l-4.544-.113-4.635.113z"/></svg>